<?xml version="1.0" encoding="UTF-8"?>
<svg id="logo" xmlns="http://www.w3.org/2000/svg" version="1.1" viewBox="0 0 256 256">
  <defs>
    <style>
      .cls-1 {
        fill: #000;
      }

      .cls-1, .cls-2 {
        stroke-width: 0px;
      }

      .cls-2 {
        fill: #fff;
      }
    </style>
  </defs>
  <circle id="circle" class="cls-1" cx="128" cy="128" r="128"/>
  <path id="body" class="cls-2" d="M184.5,130.4c-4.8,13.1-14.3,20.5-18.4,23.2-.5-5.2-3.5-9.6-7.8-12.1-2.3-1.3-4.9-2.1-7.8-2.1s-.6,0-1,0c-3.9.2-7.4,1.9-10.1,4.5-2.9,2.8-4.7,6.8-4.7,11.1s2.3,9.4,6,12.3c.1,0,.2.2.3.3-.1.2-.3.4-.4.7-1.7,2.8-6,10.5-8,19.5-2.1,9.4-3.3,20.2-3.9,28.3-.6,7.3-.8,12.5-.8,12.5,0,0-.2-5.1-.8-12.5-.7-8.1-1.9-18.9-3.9-28.3-2-9.1-6.3-16.7-8-19.5-.2-.3-.3-.5-.4-.7.1,0,.2-.2.3-.3,3.6-2.9,6-7.3,6-12.3s-1.8-8.3-4.7-11.1c-2.6-2.6-6.1-4.3-10.1-4.5-.3,0-.6,0-1,0-2.8,0-5.5.8-7.8,2.1-4.3,2.5-7.3,6.9-7.8,12.1-4.1-2.7-13.7-10.1-18.4-23.2-2.1-5.3-2-10.8-.6-16.3,4.4.2,8.8.8,13,1.8-3.7-2.3-7.6-4.3-11.7-5.9,2.9-8.2,8.2-16.6,12.7-24.4,2.6,1.6,5.1,3.5,7.4,5.4-1.6-3-3.5-6-5.5-8.7,0-.2.2-.4.3-.5,8.6-15.5,14.7-31.5,14.7-31.5,0,0,9.5,18,8.7,36.7-.3,8.3-4.6,11.3-7.2,15.8-.4.7-.7,1.4-1,2.1-3.3,8.7-.3,15,4.8,18.9,2.4,1.6,4.8,2.1,7.2,1.8,1.8-.3,3.6-1.2,5.2-2.7,5.1-4.6,12-4.6,17,0,1.6,1.5,3.4,2.4,5.2,2.7,2.3.4,4.8-.2,7.2-1.8,5-3.9,8.1-10.2,4.8-18.9-.3-.8-.6-1.5-1-2.1-2.6-4.5-6.9-7.5-7.2-15.8-.8-18.7,8.7-36.7,8.7-36.7,0,0,6.1,16,14.7,31.5,0,.2.2.4.3.5-2.1,2.7-3.9,5.7-5.5,8.7,2.3-2,4.8-3.8,7.4-5.4,4.6,7.9,9.8,16.2,12.7,24.4-4.1,1.6-8,3.6-11.7,5.9,4.2-1,8.5-1.6,13-1.8,1.4,5.6,1.5,11.1-.6,16.3Z"/>
  <path id="laurel" class="cls-2" d="M167.4,189.4c-.7,0-1.4-.4-1.7-1-.5-1-.1-2.2.8-2.7,26.8-14.3,43.4-42,43.4-72.3,0-45.2-36.7-81.9-81.9-81.9S46.1,68.2,46.1,113.4s16.6,58,43.4,72.3c1,.5,1.3,1.7.8,2.7-.5,1-1.7,1.3-2.7.8-28.1-15-45.5-44-45.5-75.8,0-47.3,38.5-85.8,85.8-85.8s85.8,38.5,85.8,85.8-17.4,60.8-45.5,75.8c-.3.2-.6.2-.9.2Z"/>
</svg>